v -1.000000 -0.068387 0.938602
v 1.000000 -0.068387 0.938602
v -1.000000 1.334034 -3.971786
v 1.000000 1.334034 -3.971786
v -1.000000 0.294356 -1.820465
v 1.000000 0.294356 -1.820465
v -1.000000 0.069520 -0.479952
v 1.000000 0.069520 -0.479952
v 1.000000 0.770731 -2.935147
v -1.000000 0.770731 -2.935147
v -1.000000 0.005133 0.233425
v 1.000000 0.005133 0.233425
v 1.000000 0.155640 -1.173819
v -1.000000 0.155640 -1.173819
v -1.000000 0.506245 -2.401416
v 1.000000 0.506245 -2.401416
v 1.000000 1.056949 -3.449367
v -1.000000 1.056949 -3.449367
vt 0.000000 0.875000
vt 1.000000 0.875000
vt 1.000000 1.000000
vt 0.000000 1.000000
vt 0.000000 0.375000
vt 1.000000 0.375000
vt 1.000000 0.500000
vt 0.000000 0.500000
vt 0.000000 0.125000
vt 1.000000 0.125000
vt 1.000000 0.250000
vt 0.000000 0.250000
vt 0.000000 0.625000
vt 1.000000 0.625000
vt 1.000000 0.750000
vt 0.000000 0.750000
vt 0.000000 0.000000
vt 1.000000 0.000000
vn 0.0000 0.8834 0.4686
vn 0.0000 0.9778 0.2097
vn 0.0000 0.9960 0.0899
vn 0.0000 0.8960 0.4440
vn 0.0000 0.9946 0.1037
vn 0.0000 0.9924 0.1232
vn 0.0000 0.9395 0.3426
vn 0.0000 0.8738 0.4863
f 18/1/1 17/2/1 4/3/1 3/4/1
f 14/5/2 13/6/2 6/7/2 5/8/2
f 11/9/3 12/10/3 8/11/3 7/12/3
f 15/13/4 16/14/4 9/15/4 10/16/4
f 1/17/5 2/18/5 12/10/5 11/9/5
f 7/12/6 8/11/6 13/6/6 14/5/6
f 5/8/7 6/7/7 16/14/7 15/13/7
f 10/16/8 9/15/8 17/2/8 18/1/8
